<?xml version="1.0" encoding="UTF-8"?>
<svg width="700pt" height="700pt" version="1.1" viewBox="0 0 700 700" xmlns="http://www.w3.org/2000/svg">
 <path d="m540.29 445.55c1.3906-2.4609 2.1484-5.2266 2.207-8.0508v-192.5h35c6.0664 0 11.699-3.1406 14.887-8.3008 3.1914-5.1602 3.4805-11.602 0.76562-17.027l-52.5-105c-1.4531-2.9062-3.6875-5.3516-6.4531-7.0586-2.7617-1.7109-5.9492-2.6133-9.1992-2.6133h-325.25l-64.875-64.871c-4.4453-4.293-10.824-5.9258-16.785-4.293-5.957 1.6367-10.613 6.293-12.25 12.25-1.6328 5.9609 0 12.34 4.293 16.785l49.453 49.453c-0.066406 0.125-0.17578 0.21875-0.23438 0.35156l-52.5 105c-2.7109 5.4258-2.4219 11.867 0.76562 17.027 3.1914 5.1562 8.8242 8.2969 14.887 8.2969h35v192.5c0 4.6406 1.8438 9.0938 5.125 12.375s7.7344 5.125 12.375 5.125h325.25l64.871 64.871c4.4414 4.3125 10.832 5.9531 16.801 4.3203 5.9688-1.6289 10.633-6.293 12.266-12.266 1.6328-5.9688-0.011718-12.355-4.3203-16.797zm-26.113-305.55 35 70h-65.859l-35-70zm-122.5 0-35 70h-51.934l-70-70zm-240.86 70 34.809-69.625 69.625 69.625zm41.68 210v-175h97.754l175 175zm315-7.2461-167.75-167.75h27.754c3.25 0 6.4375-0.90234 9.1992-2.6133 2.7656-1.707 5-4.1523 6.4531-7.0586l36.848-73.691 36.848 73.691v-0.003906c1.4531 2.9102 3.6875 5.3555 6.4531 7.0625 2.7617 1.707 5.9492 2.6133 9.1992 2.6133h35z"/>
</svg>
